<svg width="225" height="52" viewBox="0 0 225 52" fill="none" xmlns="http://www.w3.org/2000/svg">
<path d="M3.73281 42V41.36L6.93281 39.76V17.84L3.73281 16.24V15.6H14.0528C16.8528 15.6 19.0528 16.1867 20.6528 17.36C22.2795 18.5067 23.0928 20.0933 23.0928 22.12C23.0928 23.6133 22.5861 24.96 21.5728 26.16C20.5595 27.3333 19.2128 28.2267 17.5328 28.84L25.1328 39.92L27.7728 41.36V42H22.0128L14.2528 29.88H10.5328V39.72L13.5328 41.36V42H3.73281ZM13.1328 17.8H10.5328V27.68H13.3728C15.0528 27.68 16.4395 27.2133 17.5328 26.28C18.6528 25.32 19.2128 24.1067 19.2128 22.64C19.2128 21.1467 18.6661 19.9733 17.5728 19.12C16.4795 18.24 14.9995 17.8 13.1328 17.8ZM30.1781 42V41.36L33.0181 40.04V21.56L30.1781 20.24V19.6H47.2581V25.28H46.6181L44.6981 21.6H36.4181V29.4H42.4581L43.6581 26.68H44.2981V34.08H43.6581L42.4581 31.4H36.4181V40H45.6181L47.6181 35.68H48.2581V42H30.1781ZM52.3747 42V41.36L54.4147 40.32L63.2947 19.4H64.9747L73.8147 40.28L76.1347 41.36V42H67.4147V41.36L70.2147 40.24L67.6947 34.16H59.3747L56.8547 40.32L59.8147 41.36V42H52.3747ZM60.2147 32.16H66.8547L63.4947 24.08L60.2147 32.16ZM80.0609 42V41.36L82.9409 40.04V21.56L80.0609 20.24V19.6H89.7009C92.3676 19.6 94.6209 20.0267 96.4609 20.88C98.3276 21.7333 99.7409 22.9333 100.701 24.48C101.688 26 102.181 27.7733 102.181 29.8C102.181 32.28 101.674 34.44 100.661 36.28C99.6476 38.0933 98.1809 39.5067 96.2609 40.52C94.3676 41.5067 92.1009 42 89.4609 42H80.0609ZM89.1809 21.6H86.3409V40H89.4209C92.4076 40 94.6876 39.1467 96.2609 37.44C97.8609 35.7333 98.6609 33.48 98.6609 30.68C98.6609 27.72 97.8476 25.4667 96.2209 23.92C94.5943 22.3733 92.2476 21.6 89.1809 21.6ZM107.6 42V41.36L110.44 40.04V21.56L107.6 20.24V19.6H117.08V20.24L113.84 21.56V40H122.52L124.88 34.32H125.52V42H107.6ZM130.73 42V41.36L133.37 40.04V21.56L130.73 20.24V19.6H139.49V20.24L136.77 21.56V40.04L139.49 41.36V42H130.73ZM156.745 42.4C154.505 42.4 152.505 41.9333 150.745 41C149.011 40.04 147.638 38.7333 146.625 37.08C145.611 35.4267 145.105 33.5467 145.105 31.44C145.105 29.68 145.425 28.0667 146.065 26.6C146.705 25.1067 147.585 23.8133 148.705 22.72C149.825 21.6 151.118 20.7333 152.585 20.12C154.078 19.5067 155.665 19.2 157.345 19.2C159.158 19.2 160.585 19.36 161.625 19.68C162.665 19.9733 163.678 20.36 164.665 20.84L164.865 26.52H164.305L162.065 22.68C161.105 22.0133 160.278 21.56 159.585 21.32C158.918 21.0533 158.145 20.92 157.265 20.92C155.505 20.92 153.945 21.3067 152.585 22.08C151.225 22.8267 150.145 23.8667 149.345 25.2C148.571 26.5333 148.185 28.04 148.185 29.72C148.185 31.9867 148.598 33.92 149.425 35.52C150.278 37.0933 151.411 38.3067 152.825 39.16C154.238 39.9867 155.811 40.4 157.545 40.4C158.371 40.4 159.158 40.3467 159.905 40.24C160.678 40.1333 161.465 39.9067 162.265 39.56V34L159.185 32.64V32.08H167.705V32.64L165.345 34.12V39.52C164.651 40.1067 163.811 40.6133 162.825 41.04C161.865 41.4667 160.851 41.8 159.785 42.04C158.718 42.28 157.705 42.4 156.745 42.4ZM172.288 42V41.36L175.128 40.04V21.56L172.288 20.24V19.6H181.488V20.24L178.528 21.56V29.4H190.488V21.56L187.528 20.24V19.6H196.688V20.24L193.888 21.56V40.04L196.688 41.36V42H187.528V41.36L190.488 40.04V31.4H178.528V40.04L181.488 41.36V42H172.288ZM206.297 42V41.36L209.857 40.04V21.6H203.697L201.737 26.28H201.097V19.6H222.057V26.28H221.417L219.417 21.6H213.257V40.04L216.857 41.36V42H206.297Z" fill="#EAE5AB"/>
<path d="M135 14.5625C135.73 14.5625 136.322 14.2133 136.322 13.7827C136.322 13.352 135.73 13.0028 135 13.0028C134.27 13.0028 133.678 13.352 133.678 13.7827C133.678 14.2133 134.27 14.5625 135 14.5625Z" fill="#424242"/>
<path d="M135 1.4375C132.694 1.4375 130.824 3.15141 130.824 5.26453C130.824 5.81578 130.99 6.40531 131.234 6.92484C131.577 7.65547 131.95 8.19578 132.059 8.39484C132.363 8.94828 132.319 9.53125 132.403 9.89656C132.562 10.5791 133.037 10.8263 134.999 10.8263C136.961 10.8263 137.383 10.5911 137.559 9.96219C137.68 9.53453 137.563 9.0675 137.866 8.51516C137.975 8.31609 138.42 7.65656 138.764 6.92484C139.008 6.40531 139.174 5.81578 139.174 5.26453C139.176 3.15141 137.306 1.4375 135 1.4375Z" fill="#FFD600"/>
<path d="M135 10.9083C136.325 10.9083 137.4 10.6899 137.4 10.4205C137.4 10.151 136.325 9.93265 135 9.93265C133.675 9.93265 132.6 10.151 132.6 10.4205C132.6 10.6899 133.675 10.9083 135 10.9083Z" fill="#B26500"/>
<path d="M135 10.9083C136.325 10.9083 137.4 10.6899 137.4 10.4205C137.4 10.151 136.325 9.93265 135 9.93265C133.675 9.93265 132.6 10.151 132.6 10.4205C132.6 10.6899 133.675 10.9083 135 10.9083Z" fill="#B26500"/>
<path d="M135 10.6458C135.966 10.6458 136.749 10.5449 136.749 10.4205C136.749 10.296 135.966 10.1952 135 10.1952C134.034 10.1952 133.251 10.296 133.251 10.4205C133.251 10.5449 134.034 10.6458 135 10.6458Z" fill="#FFA000"/>
<path d="M133.83 7.20923C133.762 7.37985 133.586 7.73095 133.678 7.88845C133.891 8.25485 134.4 8.3861 134.4 8.72298C134.4 9.23704 134.026 10.9028 134.026 10.9028M136.097 7.14798C136.097 7.14798 136.342 7.67298 136.238 7.90814C136.161 8.08314 135.693 8.36532 135.633 8.41235C135.354 8.6311 135.725 10.9039 135.725 10.9039" stroke="#B26500" stroke-width="0.546875" stroke-miterlimit="10"/>
<path d="M133.83 7.20922C134.206 6.46547 134.4 4.76797 133.922 4.85438C133.116 4.99984 134.109 7.78891 134.598 7.46844C135.086 7.14797 135.692 4.85984 134.949 4.85109C134.205 4.84234 134.999 7.76703 135.504 7.44219C135.903 7.18516 136.878 4.85438 136.077 4.85438C135.396 4.85438 136.098 7.14797 136.098 7.14797" stroke="white" stroke-width="0.546875" stroke-miterlimit="10"/>
<path d="M137.394 10.5222C137.394 10.5222 136.764 10.8262 135 10.8262C133.236 10.8262 132.606 10.5222 132.606 10.5222C132.606 10.5222 132.566 11.0844 132.697 11.3392C132.853 11.6455 132.973 11.7516 132.973 11.7516L133.039 12.0633L133.013 12.1453C132.979 12.2525 133.003 12.3706 133.078 12.4548L133.135 12.5183L133.199 12.818L133.177 12.8781C133.135 12.993 133.164 13.1209 133.249 13.2084L133.291 13.2511L133.342 13.4961C133.342 13.4961 133.602 14.0517 135 14.0517C136.398 14.0517 136.658 13.4961 136.658 13.4961L136.663 13.4753L136.691 13.4469C136.748 13.3911 136.766 13.308 136.739 13.2336L136.723 13.1909L136.791 12.8672L136.91 12.7414C136.969 12.6791 136.982 12.5872 136.944 12.5106L136.889 12.4023L136.958 12.0775L137.002 12.0436C137.066 11.9725 137.067 11.8653 137.039 11.792C137.017 11.7341 137.034 11.6684 137.079 11.6258C137.148 11.5602 137.237 11.4606 137.302 11.337C137.437 11.0866 137.394 10.5222 137.394 10.5222Z" fill="#82AEC0"/>
<path d="M132.973 11.7515L133.032 12.0655C133.669 12.0622 134.519 12.0939 136.15 11.8347C136.444 11.768 136.797 11.6356 136.407 11.6903C136.407 11.6892 134.909 11.8325 132.973 11.7515ZM133.192 12.8201C133.896 12.8081 135.336 12.7381 136.882 12.4023L136.951 12.0775C135.334 12.445 133.812 12.5106 133.129 12.5194L133.192 12.8201ZM136.784 12.8661C135.352 13.1767 134.012 13.2565 133.287 13.274L133.334 13.4972C133.334 13.4972 133.357 14.1895 134.992 14.1895C136.627 14.1895 136.65 13.4972 136.65 13.4972C136.65 13.4972 135.953 13.6962 135.094 13.5989C135.085 13.599 135.076 13.5973 135.068 13.5939C135.059 13.5905 135.052 13.5854 135.045 13.5791C135.032 13.5663 135.025 13.5488 135.025 13.5305C135.024 13.5123 135.032 13.4947 135.044 13.4816C135.057 13.4686 135.075 13.4612 135.093 13.4611C135.606 13.3933 136.218 13.2926 136.716 13.1898L136.784 12.8661Z" fill="#2F7889"/>
<path d="M132.613 10.5222C132.613 10.5222 133.32 10.8262 134.993 10.8262C136.667 10.8262 137.387 10.5222 137.387 10.5222" stroke="#82AEC0" stroke-width="1.09293" stroke-miterlimit="10" stroke-linecap="round"/>
<path d="M133.456 2.12875C133.883 2.02375 134.331 2.07625 134.637 2.44813C134.723 2.55313 134.79 2.67781 134.805 2.81344C134.836 3.07484 134.674 3.32203 134.482 3.50359C133.933 4.02203 133.153 4.27359 132.798 4.98891C132.715 5.15625 132.65 5.33672 132.523 5.47344C132.396 5.61016 132.185 5.69328 132.02 5.60578C131.932 5.55984 131.872 5.47344 131.823 5.38703C131.512 4.83359 131.535 4.12813 131.808 3.555C132.109 2.92719 132.769 2.29719 133.456 2.12875Z" fill="#FFFF8D"/>
<path d="M133.08 11.0548C132.984 11.0111 133.022 10.8667 133.127 10.8744C133.48 10.9017 134.079 10.9356 134.872 10.9356C135.708 10.9356 136.443 10.8733 136.871 10.8273C136.977 10.8164 137.018 10.9619 136.921 11.0067C136.59 11.162 135.985 11.3392 134.949 11.3392C133.937 11.3392 133.379 11.1894 133.08 11.0548Z" fill="#FFD600"/>
<path d="M133.681 12.1595C133.608 12.1858 133.532 12.2219 133.495 12.2897C133.482 12.3148 133.474 12.3433 133.48 12.3717C133.488 12.4133 133.527 12.4428 133.565 12.4614C133.642 12.4986 133.728 12.5084 133.812 12.5095C133.986 12.5117 134.159 12.4789 134.331 12.4461C134.382 12.4362 134.435 12.4264 134.48 12.4012C134.526 12.3761 134.566 12.3334 134.573 12.282C134.584 12.2131 134.535 12.1464 134.475 12.1136C134.267 11.9987 133.891 12.0841 133.681 12.1595ZM133.844 12.8803C133.771 12.9066 133.695 12.9427 133.658 13.0105C133.645 13.0356 133.637 13.0641 133.643 13.0925C133.651 13.1341 133.69 13.1636 133.728 13.1822C133.805 13.2194 133.891 13.2292 133.975 13.2303C134.149 13.2325 134.322 13.1997 134.494 13.1669C134.545 13.157 134.598 13.1472 134.643 13.122C134.689 13.0969 134.729 13.0542 134.736 13.0028C134.747 12.9339 134.698 12.8672 134.638 12.8344C134.43 12.7206 134.053 12.8059 133.844 12.8803Z" fill="#94D1E0"/>
<path d="M133.47 10.2094C133.569 10.2192 133.674 10.2105 133.759 10.1569C133.843 10.1033 133.896 9.99391 133.863 9.89985C133.845 9.85063 133.807 9.81125 133.77 9.77406C133.688 9.69313 133.606 9.61219 133.525 9.53125C133.434 9.44047 133.343 9.35078 133.245 9.26875C133.093 9.14188 132.888 9.02266 132.688 9.11563C132.517 9.19438 132.477 9.34969 132.552 9.51266C132.713 9.855 133.087 10.17 133.47 10.2094Z" fill="#FFFF8D"/>
</svg>
