<svg width="43" height="42" viewBox="0 0 43 42" fill="none" xmlns="http://www.w3.org/2000/svg">
<path d="M38.6667 31.4166C40.9583 31.4166 42.8333 29.5416 42.8333 27.25V4.33329C42.8333 2.04163 40.9583 0.166626 38.6667 0.166626H16.7917C17.4167 1.41663 17.8333 2.87496 17.8333 4.33329H38.6667V27.25H19.9167V31.4166M28.25 10.5833V14.75H15.75V41.8333H11.5833V29.3333H7.41667V41.8333H3.25V25.1666H0.125V14.75C0.125 12.4583 2 10.5833 4.29167 10.5833H28.25ZM13.6667 4.33329C13.6667 6.62496 11.7917 8.49996 9.5 8.49996C7.20833 8.49996 5.33333 6.62496 5.33333 4.33329C5.33333 2.04163 7.20833 0.166626 9.5 0.166626C11.7917 0.166626 13.6667 2.04163 13.6667 4.33329ZM32.4167 8.49996H36.5833V25.1666H32.4167V8.49996ZM26.1667 16.8333H30.3333V25.1666H26.1667V16.8333ZM19.9167 16.8333H24.0833V25.1666H19.9167V16.8333Z" fill="#CFF242"/>
</svg>
