<svg width="80" height="80" viewBox="0 0 80 80" fill="none" xmlns="http://www.w3.org/2000/svg">
<path d="M6 71.4125L40 12.5187L74.0062 71.4125H6Z" fill="#FCC21B"/>
<path d="M79.4186 72.4562L41.8061 7.31249C41.4311 6.66874 40.7436 6.26874 39.9998 6.26874C39.2561 6.26874 38.5686 6.66874 38.1998 7.31249L0.581055 72.4562C0.206055 73.1 0.206055 73.8937 0.581055 74.5437C0.956055 75.1875 1.64355 75.5812 2.3873 75.5812H77.6123C78.3561 75.5812 79.0436 75.1875 79.4186 74.5437C79.7873 73.8937 79.7873 73.1 79.4186 72.4562ZM5.99981 71.4125L39.9998 12.5187L74.0061 71.4125H5.99981Z" fill="#2F2F2F"/>
<path d="M36.9496 52.0063H43.0496C43.2746 52.0063 43.4558 51.8625 43.4683 51.675L45.1308 27.7562C45.1371 27.6562 45.0996 27.5688 45.0183 27.4938C44.9334 27.4201 44.8245 27.3801 44.7121 27.3813H35.2871C35.1683 27.3813 35.0558 27.425 34.9808 27.4938C34.944 27.5266 34.9149 27.5672 34.8955 27.6125C34.876 27.6579 34.8668 27.7069 34.8683 27.7562L36.5371 51.675C36.5433 51.8563 36.7246 52.0063 36.9496 52.0063ZM35.0683 64.575C35.0683 63.6938 35.1933 62.95 35.4496 62.3438C35.6996 61.7313 36.0496 61.2375 36.4996 60.8625C36.9496 60.4875 37.4746 60.2125 38.0871 60.0438C38.6933 59.875 39.3433 59.7875 40.0433 59.7875C40.6996 59.7875 41.3246 59.875 41.9183 60.0438C42.5121 60.2125 43.0308 60.4875 43.4746 60.8625C43.9246 61.2375 44.2808 61.725 44.5433 62.3438C44.8058 62.95 44.9371 63.6938 44.9371 64.575C44.9371 65.4188 44.8058 66.1438 44.5433 66.7375C44.2808 67.3375 43.9246 67.8375 43.4746 68.2313C43.0308 68.625 42.5121 68.9125 41.9183 69.0875C41.3246 69.2625 40.6996 69.3563 40.0433 69.3563C39.3496 69.3563 38.6996 69.2688 38.0871 69.0875C37.4746 68.9063 36.9496 68.625 36.4996 68.2313C36.0355 67.8241 35.6755 67.312 35.4496 66.7375C35.1933 66.1375 35.0683 65.4188 35.0683 64.575Z" fill="#2F2F2F"/>
</svg>
